<?xml version="1.0" encoding="utf-8"?>
<!-- Generator: Adobe Illustrator 27.0.0, SVG Export Plug-In . SVG Version: 6.00 Build 0)  -->
<svg version="1.1" id="Layer_1" xmlns="http://www.w3.org/2000/svg" xmlns:xlink="http://www.w3.org/1999/xlink" x="0px" y="0px"
	 viewBox="0 0 136.8 141.2" style="enable-background:new 0 0 136.8 141.2;" xml:space="preserve">
<style type="text/css">
	.st0{enable-background:new    ;}
	.st1{fill:#FFFFFF;}
</style>
<g class="st0">
	<path class="st1" d="M128,25.5l-17.7,17.7C99,31.2,86,25.2,71,25.2c-13,0-23.9,4.4-32.7,13.1C29.6,47,25.2,57.6,25.2,70
		c0,12.9,4.6,23.8,13.7,32.7c9.1,9,20.4,13.4,33.7,13.4c8.7,0,16-1.8,22-5.5s10.8-9.5,14.4-17.3H70.7V69.5h66.5l0.2,5.6
		c0,11.7-3,22.7-9,33.2s-13.8,18.4-23.3,23.9c-9.5,5.5-20.7,8.3-33.5,8.3c-13.7,0-26-3-36.7-9c-10.8-6-19.3-14.6-25.5-25.7
		C3.1,94.6,0,82.6,0,69.8c0-17.7,5.8-33,17.3-46.1C31.1,8.1,48.9,0.4,70.9,0.4c11.5,0,22.3,2.1,32.3,6.4
		C111.6,10.4,119.9,16.7,128,25.5z"/>
</g>
</svg>
