<?xml version="1.0" encoding="utf-8"?>
<!-- Generator: Adobe Illustrator 27.0.0, SVG Export Plug-In . SVG Version: 6.00 Build 0)  -->
<svg version="1.1" id="Layer_1" xmlns="http://www.w3.org/2000/svg" xmlns:xlink="http://www.w3.org/1999/xlink" x="0px" y="0px"
	 viewBox="0 0 793.1 141.2" enable-background="new 0 0 793.1 141.2" xml:space="preserve">
<g enable-background="new    ">
	<path fill="#FFFFFF" d="M128,25.5l-17.7,17.7C99,31.2,86,25.2,71,25.2c-13,0-23.9,4.4-32.7,13.1C29.6,47,25.2,57.6,25.2,70
		c0,12.9,4.6,23.8,13.7,32.7c9.1,9,20.4,13.4,33.7,13.4c8.7,0,16-1.8,22-5.5c6-3.7,10.8-9.5,14.4-17.3H70.7V69.5h66.5l0.2,5.6
		c0,11.7-3,22.7-9,33.2c-6,10.5-13.8,18.4-23.3,23.9s-20.7,8.3-33.5,8.3c-13.7,0-26-3-36.7-9c-10.8-6-19.3-14.6-25.5-25.7
		C3.1,94.6,0,82.6,0,69.8c0-17.7,5.8-33,17.3-46.1C31.1,8.1,48.9,0.4,70.9,0.4c11.5,0,22.3,2.1,32.3,6.4
		C111.6,10.4,119.9,16.7,128,25.5z"/>
</g>
<g enable-background="new    ">
</g>
<g enable-background="new    ">
	<path fill="#FFFFFF" d="M284.2,0.4h27.5c15,0,25.7,1.4,32.1,4.1c6.4,2.8,11.5,7.4,15.4,13.8c3.9,6.4,5.8,14,5.8,22.8
		c0,9.2-2.1,16.9-6.4,23.1c-4.3,6.2-10.8,10.9-19.4,14.1l32.3,62.3h-28.3l-30.6-59.4h-2.4v59.4h-25.9V0.4z M310.1,55.1h8.1
		c8.2,0,13.9-1.1,17-3.3c3.1-2.2,4.7-5.9,4.7-11.1c0-3.1-0.8-5.7-2.3-8c-1.5-2.3-3.6-3.9-6.2-4.9c-2.6-1-7.3-1.5-14.2-1.5h-7.1V55.1
		z"/>
	<path fill="#FFFFFF" d="M385.2,0.4h82.4l-48.5,114.5h45.3v25.6h-83.2l48.3-113.8h-44.3V0.4z"/>
</g>
<g>
	<g id="Layer_3">
		<path fill="#FFFFFF" d="M195.2,74.1l2.6-0.7c1.7,6.7,8.3,11.5,15.8,9.9c5.2-1,9.3-5.2,10.3-10.3c1.7-8.7-4.8-16.2-13.1-16.2
			c-0.1,0-0.1-0.1-0.1-0.1v-2.5c0-0.1,0.1-0.1,0.1-0.1c9.9,0.1,17.7,9,15.7,19.3c-1.2,6.4-6.2,11.4-12.6,12.6
			C205,87.7,197.1,82,195.2,74.1z"/>
	</g>
	<g id="Layer_2_00000039105158376036080770000018327474553049082504_">
		<path fill="#FFFFFF" d="M192,71.5c0.7,9.6,8.5,17.1,18.1,17.4c10.9,0.4,19.8-8.6,19.4-19.4c-0.4-10.1-8.6-18.1-18.7-18.1
			c-0.1,0-0.1-0.1-0.1-0.1v-2.5c0-0.1,0.1-0.1,0.1-0.1c12.5,0.1,22.5,10.8,21.3,23.6c-1,10.2-9.1,18.3-19.3,19.3
			c-12.3,1.2-22.7-8-23.6-19.8L192,71.5z"/>
	</g>
	<g id="Layer_5">
		<g>
			<path fill="#FFFFFF" d="M189.9,82.3c4.6,7.9,13.6,13,23.7,11.9c11.2-1.2,20-10.1,21.2-21.2c1.6-14.5-9.7-26.9-23.9-26.9
				c-0.1,0-0.1-0.1-0.1-0.1v-2.5c0-0.1,0.1-0.1,0.1-0.1c16.3,0.1,29.1,14.5,26.4,31.2c-1.7,10.4-11.7,20.4-22.1,22.1
				c-11.8,1.8-22.4-3.9-27.7-13.1L189.9,82.3z"/>
		</g>
	</g>
	<g id="Layer_8">
		<path fill="#FFFFFF" d="M179.4,85.3c6.4,13.3,21,21.8,37.2,19.2c13.6-2.1,26.5-15.1,28.7-28.7c3.5-21.8-13.2-40.6-34.4-40.6
			c-0.1,0-0.1-0.1-0.1-0.1v-2.5c0-0.1,0.1-0.1,0.1-0.1c21.7,0.1,39.1,18.5,37.4,40.6c-1.5,18.3-16.1,32.9-34.4,34.4
			c-16.2,1.3-30.4-7.7-36.9-21L179.4,85.3z"/>
	</g>
	<g id="Layer_7">
		<path fill="#FFFFFF" d="M190,91.1c6.4,6.3,15.6,9.8,25.6,8.2c11.5-1.8,22.5-12.8,24.3-24.3c2.9-18.5-11.2-34.4-29.1-34.4
			c-0.1,0-0.1-0.1-0.1-0.1V38c0-0.1,0.1-0.1,0.1-0.1c19.5,0.1,34.9,17.4,31.7,37.5c-2,12.5-14,24.5-26.4,26.4c-10.9,1.7-21-2-28-8.9
			L190,91.1z"/>
	</g>
	<g id="Layer_9">
		<path fill="#FFFFFF" d="M202.8,109.6c3.6,0.7,7.4,1,11.3,0.7c19.6-1.5,35.3-17.2,36.9-36.9c1.8-23.7-16.7-43.5-40.1-43.6
			c-0.1,0-0.1-0.1-0.1-0.1v-2.5c0-0.1,0.1-0.1,0.1-0.1c24.8,0.1,44.7,21.2,42.7,46.4c-1.7,20.9-18.3,37.7-39.3,39.3
			c-4.2,0.3-8.2,0.1-12.1-0.7L202.8,109.6z"/>
	</g>
	<g id="Layer_10">
		<path fill="#FFFFFF" d="M186,108.4c8.1,5.3,18,8,28.6,7.2c22.3-1.8,40-19.5,41.8-41.8c2.1-26.9-19-49.3-45.4-49.3
			c-0.1,0-0.1-0.1-0.1-0.1v-2.5c0-0.1,0.1-0.1,0.1-0.1c28,0.1,50.3,23.8,48.1,52.3c-1.8,23.6-20.7,42.3-44.2,44.2
			c-11.2,0.9-21.7-2-30.2-7.6L186,108.4z"/>
	</g>
	<g id="Layer_11">
		<path fill="#FFFFFF" d="M161,81.5c5.4,23.7,27.4,41.2,53.1,39.5c25.5-1.7,45.8-22,47.5-47.5c1.9-29.7-21.5-54.4-50.8-54.4
			c-0.1,0-0.1-0.1-0.1-0.1v-2.5c0-0.1,0.1-0.1,0.1-0.1c32.1,0.1,57.6,28.3,53.1,61.3c-3.3,23.6-21.9,42.3-45.5,45.5
			c-28.8,4-54-14.9-59.9-41.2L161,81.5z"/>
	</g>
	<g id="Layer_12">
		<path fill="#FFFFFF" d="M164.9,102.9c11.7,16.3,31.7,26.1,53.9,23.1c24.8-3.4,44.4-23,47.8-47.8c4.8-34.7-22-64.3-55.7-64.4
			c-0.1,0-0.1-0.1-0.1-0.1v-2.5c0-0.1,0.1-0.1,0.1-0.1c35.3,0.1,63.4,31.1,58.4,67.4c-3.6,26-24,46.5-50.1,50.1
			c-23.3,3.2-44.3-7.1-56.5-24.2L164.9,102.9z"/>
	</g>
	<g id="Layer_13">
		<path fill="#FFFFFF" d="M153.4,93.1c10.1,25.2,36.4,42.2,66.1,38.2c27.2-3.7,48.6-25.2,52.3-52.3c5.2-38-24-70.4-61-70.5
			c-0.1,0-0.1-0.1-0.1-0.1V5.8c0-0.1,0.1-0.1,0.1-0.1c38.3,0.1,68.8,33.5,63.8,72.8c-3.7,29-26.5,51.8-55.5,55.5
			c-30.7,3.9-57.7-13.7-68.2-39.9L153.4,93.1z"/>
	</g>
	<g id="Layer_4">
		<path fill="#FFFFFF" d="M211.9,78.1c3.6-0.5,6.4-3.3,6.9-6.9c0.7-4.9-3.1-9.1-7.9-9.2c-0.1,0-0.1-0.1-0.1-0.1v-2.5
			c0-0.1,0.1-0.1,0.1-0.1c6.5,0.1,11.7,5.9,10.5,12.6c-0.7,4.4-4.2,7.9-8.7,8.7c-6.1,1-11.5-3.1-12.5-8.7l2.6-0.5
			C203.6,75.6,207.4,78.7,211.9,78.1z"/>
	</g>
	<g id="Layer_6">
		<g>
			<path fill="#FFFFFF" d="M212.4,70.6l-0.2-0.1c-0.2,0.7-0.9,1.2-1.6,1c-0.6-0.1-0.9-0.6-1-1c-0.2-0.9,0.5-1.7,1.3-1.7l0,0v-0.2
				l0,0c-1,0-1.8,0.9-1.6,2c0.1,0.7,0.6,1.2,1.3,1.3C211.4,71.9,212.2,71.4,212.4,70.6z"/>
			<path fill="#FFFFFF" d="M212.7,70.2c-0.1,1-0.9,1.7-1.8,1.8c-1.1,0.1-2-0.9-2-2c0.1-1,0.9-1.8,1.9-1.8l0,0V68l0,0
				c-1.3,0-2.3,1.1-2.1,2.4c0.1,1,0.9,1.8,2,2c1.2,0.1,2.3-0.8,2.4-2L212.7,70.2z"/>
			<g>
				<path fill="#FFFFFF" d="M212.9,71.4c-0.5,0.8-1.4,1.3-2.4,1.2c-1.2-0.1-2-1-2.1-2.1c-0.2-1.5,1-2.8,2.5-2.8l0,0v-0.2l0,0
					c-1.7,0-2.9,1.5-2.7,3.2c0.2,1,1.2,2.1,2.3,2.3c1.2,0.2,2.3-0.4,2.8-1.3L212.9,71.4z"/>
			</g>
			<g>
				<path fill="#FFFFFF" d="M214,71.7c-0.7,1.3-2.1,2.2-3.8,2c-1.4-0.2-2.7-1.5-2.9-2.9c-0.4-2.2,1.3-4.2,3.5-4.2l0,0v-0.2l0,0
					c-2.2,0-4,1.9-3.8,4.2c0.1,1.9,1.7,3.4,3.5,3.5c1.7,0.1,3.1-0.8,3.7-2.1L214,71.7z"/>
			</g>
			<g>
				<path fill="#FFFFFF" d="M212.9,72.3c-0.7,0.7-1.6,1-2.6,0.9c-1.2-0.2-2.3-1.3-2.5-2.5c-0.3-1.9,1.2-3.5,2.9-3.5l0,0v-0.2l0,0
					c-2,0-3.6,1.8-3.3,3.8c0.2,1.3,1.4,2.5,2.7,2.7c1.1,0.2,2.1-0.2,2.9-0.9L212.9,72.3z"/>
			</g>
			<g>
				<path fill="#FFFFFF" d="M211.6,74.2c-0.4,0.1-0.7,0.1-1.2,0.1c-2-0.2-3.6-1.8-3.7-3.7c-0.2-2.4,1.7-4.4,4.1-4.4l0,0v-0.2l0,0
					c-2.5,0-4.5,2.1-4.4,4.7c0.2,2.1,1.9,3.9,4,4c0.4,0.1,0.9,0,1.2-0.1L211.6,74.2z"/>
			</g>
			<g>
				<path fill="#FFFFFF" d="M213.3,74.1c-0.8,0.6-1.8,0.8-2.9,0.7c-2.3-0.2-4.1-2-4.3-4.3c-0.2-2.8,2-5,4.7-5l0,0v-0.2l0,0
					c-2.9,0-5.2,2.5-4.9,5.3c0.2,2.4,2.1,4.3,4.5,4.5c1.2,0.1,2.2-0.2,3.1-0.8L213.3,74.1z"/>
			</g>
			<g>
				<path fill="#FFFFFF" d="M215.8,71.3c-0.6,2.5-2.8,4.2-5.4,4c-2.6-0.2-4.7-2.3-4.8-4.8c-0.2-3,2.2-5.6,5.2-5.6l0,0v-0.2l0,0
					c-3.3,0-5.9,2.9-5.4,6.3c0.3,2.4,2.2,4.3,4.7,4.7c2.9,0.4,5.5-1.5,6.1-4.2L215.8,71.3z"/>
			</g>
			<g>
				<path fill="#FFFFFF" d="M215.5,73.5c-1.2,1.7-3.3,2.7-5.5,2.3c-2.5-0.4-4.5-2.3-4.9-4.9c-0.5-3.6,2.3-6.6,5.7-6.6l0,0v-0.2l0,0
					c-3.6,0-6.5,3.2-6,6.9c0.4,2.6,2.5,4.7,5.1,5.1c2.4,0.3,4.5-0.7,5.8-2.5L215.5,73.5z"/>
			</g>
			<g>
				<path fill="#FFFFFF" d="M216.6,72.5c-1,2.6-3.7,4.3-6.7,3.9c-2.8-0.4-5-2.6-5.3-5.3c-0.6-3.9,2.5-7.2,6.3-7.2l0,0v-0.3l0,0
					c-3.9,0-7.1,3.4-6.5,7.4c0.4,2.9,2.7,5.3,5.6,5.6c3.1,0.4,5.9-1.4,7-4L216.6,72.5z"/>
			</g>
			<path fill="#FFFFFF" d="M210.7,71c-0.4-0.1-0.7-0.3-0.7-0.7c-0.1-0.5,0.3-0.9,0.8-0.9l0,0v-0.2l0,0c-0.7,0-1.2,0.6-1,1.3
				c0.1,0.4,0.4,0.8,0.9,0.9c0.6,0.1,1.2-0.3,1.3-0.9l-0.2-0.1C211.5,70.7,211.1,71,210.7,71z"/>
			<g>
				<path fill="#FFFFFF" d="M217.6,71c-0.4,3.5-3.5,6.2-7.2,6c-3.5-0.2-6.3-3-6.4-6.4c-0.2-4,2.9-7.2,6.8-7.2l0,0v-0.2l0,0
					c-4.1,0-7.4,3.4-7.1,7.6c0.2,3.6,3.1,6.4,6.7,6.7c3.9,0.2,7.1-2.6,7.5-6.3L217.6,71z"/>
			</g>
		</g>
		<path fill="#FFFFFF" d="M144.2,78.2c4.1,34.5,34.3,60.9,70.3,59c34.1-1.8,61.4-29.1,63.3-63.3c2.1-38.8-28.6-70.8-66.9-70.8
			c-0.1,0-0.1-0.1-0.1-0.1V0.4c0-0.1,0.1-0.1,0.1-0.1c40,0.1,72.1,33.7,69.6,74.2c-2.1,35-30.2,63.1-65.2,65.2
			c-37.7,2.3-69.4-25.2-73.7-61.3L144.2,78.2z"/>
	</g>
</g>
<path fill="#FFFFFF" d="M511.4,2c0.6,0,1,0.2,1.3,0.5c0.3,0.3,0.4,0.7,0.4,1.2c0,0.5-0.1,0.9-0.4,1.2c-0.3,0.4-0.7,0.5-1.3,0.5
	h-34.2c-0.6,0-1-0.2-1.3-0.5c-0.3-0.3-0.4-0.7-0.4-1.2c0-0.5,0.1-0.9,0.4-1.2c0.3-0.4,0.7-0.5,1.3-0.5H511.4z M492.7,17.7
	c0-0.5,0.1-0.9,0.4-1.3c0.3-0.3,0.7-0.5,1.2-0.5c0.5,0,0.9,0.2,1.3,0.5c0.4,0.3,0.5,0.7,0.5,1.2l0.3,30.3c0,0.6-0.1,1.1-0.5,1.4
	c-0.4,0.3-0.8,0.4-1.3,0.4c-0.5,0-0.9-0.1-1.2-0.4c-0.3-0.3-0.5-0.7-0.5-1.3L492.7,17.7z"/>
<path fill="#FFFFFF" d="M515,4.8c-0.2-0.3-0.4-0.6-0.4-0.9c0-0.3,0-0.6,0.2-0.9c0.1-0.3,0.3-0.5,0.6-0.7c0.3-0.2,0.6-0.3,1-0.3
	c0.5,0,1,0.2,1.4,0.7l16,20.7l15.9-20.7c0.4-0.5,0.8-0.7,1.4-0.7c0.7,0,1.2,0.4,1.5,1c0.3,0.6,0.2,1.2-0.2,1.8l-17.2,22.5
	c-0.3,0.5-0.8,0.7-1.4,0.7c-0.2,0-0.5-0.1-0.9-0.2c-0.3-0.2-0.6-0.4-0.7-0.6L515,4.8z M531.9,35.6c0-0.5,0.1-0.9,0.4-1.3
	c0.3-0.3,0.8-0.5,1.3-0.5c0.5,0,0.9,0.2,1.3,0.5c0.3,0.3,0.5,0.8,0.5,1.3L535.3,48c0,0.6-0.1,1-0.5,1.3c-0.4,0.3-0.8,0.4-1.2,0.4
	c-0.5,0-0.9-0.1-1.2-0.4c-0.4-0.3-0.5-0.7-0.5-1.3L531.9,35.6z"/>
<path fill="#FFFFFF" d="M576.8,2c1.9,0,3.6,0.4,5.2,1.1c1.6,0.7,3,1.7,4.2,2.9c1.2,1.2,2.2,2.6,2.9,4.2c0.7,1.6,1.1,3.3,1.1,5.2
	c0,1.8-0.4,3.5-1.1,5.2c-0.7,1.6-1.7,3.1-2.9,4.3c-1.2,1.2-2.6,2.2-4.2,2.9c-1.6,0.7-3.3,1.1-5.2,1.1h-19.6l0.3,19.2
	c0,0.6-0.1,1-0.5,1.3c-0.4,0.3-0.8,0.4-1.2,0.4c-0.5,0-0.9-0.1-1.2-0.4c-0.4-0.3-0.5-0.7-0.5-1.3l-0.3-21c0-0.5,0.2-0.9,0.5-1.3
	c0.3-0.3,0.7-0.5,1.2-0.5c0.3,0,0.5,0,0.6,0.1h20.8c1.4,0,2.6-0.3,3.8-0.8c1.2-0.5,2.2-1.2,3.1-2.1c0.9-0.9,1.6-1.9,2.1-3.1
	c0.5-1.2,0.8-2.5,0.8-3.8c0-1.4-0.3-2.6-0.8-3.8c-0.5-1.2-1.2-2.2-2.1-3.1c-0.9-0.9-1.9-1.6-3.1-2.1c-1.2-0.5-2.5-0.8-3.8-0.8H555V2
	H576.8z"/>
<path fill="#FFFFFF" d="M590.7,5.5V2h31.1c0.6,0,1,0.2,1.3,0.5c0.3,0.4,0.4,0.8,0.4,1.2c0,0.5-0.1,0.9-0.4,1.2
	c-0.3,0.3-0.7,0.5-1.3,0.5H590.7z M590.7,27.6V24l23.2,0.1c0.6,0,1,0.2,1.3,0.5c0.3,0.3,0.4,0.7,0.4,1.2c0,0.5-0.1,0.9-0.4,1.2
	c-0.3,0.4-0.7,0.5-1.3,0.5H590.7z M621.8,46.2c0.6,0,1,0.2,1.3,0.5c0.3,0.4,0.4,0.8,0.4,1.2c0,0.5-0.1,0.9-0.4,1.2
	c-0.3,0.3-0.7,0.5-1.3,0.5h-31.1v-3.5H621.8z"/>
<g enable-background="new    ">
	<path fill="#FFFFFF" stroke="#FFFFFF" stroke-width="4" stroke-miterlimit="10" d="M642.4,1.7l8,0.1h0.2c0.2,0,0.4,0.1,0.5,0.1
		c0.7,0.2,1.2,0.8,1.6,1.8c0.3,1,0.4,2,0.3,3.1l0.3,94.4c0.1,1.3-0.1,2.2-0.6,2.9c-0.5,0.6-1,1-1.6,1c-0.6,0-1.1-0.3-1.6-1
		c-0.5-0.6-0.7-1.6-0.7-2.9l-0.3-93.7h-6.1c-0.7,0-1.3-0.4-1.7-1.2c-0.4-0.8-0.6-1.1-0.6-2c0-1,0.2-0.6,0.6-1.4
		c0.4-0.7,0.9-1.1,1.7-1.1V1.7z"/>
</g>
<path fill="#FFFFFF" d="M476.9,116.2c0-3.3,0.6-6.4,1.9-9.3c1.2-2.9,2.9-5.4,5.1-7.6c2.1-2.2,4.7-3.9,7.6-5.1c2.9-1.2,6-1.9,9.3-1.9
	h9.7c1.1,0,2.1,0.1,3.1,0.2v3.5c-0.9-0.2-2-0.3-3.1-0.3h-9.7c-2.8,0-5.4,0.5-7.9,1.6c-2.5,1.1-4.6,2.5-6.4,4.4
	c-1.8,1.8-3.3,4-4.4,6.5c-1.1,2.5-1.6,5.1-1.6,7.9c0,2.8,0.5,5.5,1.6,7.9c1.1,2.5,2.5,4.6,4.4,6.5c1.8,1.8,4,3.3,6.4,4.4
	c2.5,1.1,5.1,1.6,7.9,1.6h9.7c1.1,0,2.1-0.1,3.1-0.2v3.5c-1,0.1-2,0.2-3.1,0.2h-9.7c-3.3,0-6.4-0.6-9.3-1.9c-2.9-1.2-5.4-3-7.6-5.1
	c-2.1-2.2-3.8-4.7-5.1-7.6C477.5,122.6,476.9,119.5,476.9,116.2z"/>
<path fill="#FFFFFF" d="M513.1,112.6c0-2.8,0.5-5.4,1.6-7.8c1-2.5,2.5-4.6,4.3-6.4c1.8-1.8,4-3.2,6.4-4.3c2.5-1,5.1-1.6,7.8-1.6
	c2.8,0,5.4,0.5,7.8,1.6c2.5,1,4.6,2.5,6.4,4.3c1.8,1.8,3.2,4,4.3,6.4c1,2.5,1.6,5.1,1.6,7.8v7.4c0,2.8-0.5,5.4-1.6,7.8
	c-1,2.5-2.5,4.6-4.3,6.4c-1.8,1.8-3.9,3.3-6.4,4.3c-2.5,1.1-5.1,1.6-7.8,1.6c-2.8,0-5.4-0.5-7.8-1.6c-2.5-1.1-4.6-2.5-6.4-4.3
	c-1.8-1.8-3.3-4-4.3-6.4c-1-2.5-1.6-5.1-1.6-7.8V112.6z M549.9,112.6c0-2.3-0.4-4.5-1.3-6.5c-0.9-2-2-3.8-3.5-5.3
	c-1.5-1.5-3.3-2.7-5.3-3.5c-2-0.9-4.2-1.3-6.5-1.3c-2.3,0-4.5,0.4-6.5,1.3c-2,0.9-3.8,2-5.3,3.5c-1.5,1.5-2.7,3.3-3.6,5.3
	c-0.9,2-1.3,4.2-1.3,6.5v7.4c0,2.3,0.4,4.5,1.3,6.5c0.9,2,2.1,3.8,3.6,5.3c1.5,1.5,3.3,2.7,5.3,3.5c2,0.9,4.2,1.3,6.5,1.3
	c2.3,0,4.5-0.4,6.5-1.3c2-0.9,3.8-2,5.3-3.5c1.5-1.5,2.7-3.3,3.5-5.3c0.9-2,1.3-4.2,1.3-6.5V112.6z"/>
<path fill="#FFFFFF" d="M558,92.3c0.5,0,0.9,0.1,1.2,0.4c0.3,0.3,0.5,0.7,0.5,1.2l13.1,40.1L585.9,94c0.2-0.7,0.7-1.1,1.5-1.2
	c0.4-0.3,0.7-0.4,1.2-0.4c0.5,0,0.9,0.2,1.3,0.5c0.3,0.3,0.5,0.8,0.5,1.3l-0.3,44.2c0,0.6-0.2,1-0.5,1.3c-0.3,0.3-0.7,0.4-1.2,0.4
	c-0.5,0-0.9-0.1-1.3-0.4c-0.4-0.3-0.6-0.7-0.5-1.3l0.3-35.6L575,138.9c-0.1,0.4-0.3,0.7-0.6,0.9c-0.3,0.2-0.7,0.3-1.1,0.3
	c-0.5,0-1-0.1-1.5-0.2c-0.5-0.1-0.9-0.5-1-1.1l-11.1-33.9l-0.2,33.4c0,0.6-0.2,1-0.5,1.3c-0.4,0.3-0.8,0.4-1.2,0.4
	c-0.5,0-0.9-0.1-1.2-0.4c-0.3-0.3-0.5-0.7-0.5-1.3l0.3-44.2c0-0.5,0.2-0.9,0.5-1.3C557,92.5,557.5,92.3,558,92.3z"/>
<path fill="#FFFFFF" d="M596.4,92.3c0.5,0,0.9,0.1,1.2,0.4c0.3,0.3,0.5,0.7,0.5,1.2l13.1,40.1L624.4,94c0.2-0.7,0.7-1.1,1.5-1.2
	c0.4-0.3,0.7-0.4,1.2-0.4c0.5,0,0.9,0.2,1.3,0.5c0.3,0.3,0.5,0.8,0.5,1.3l-0.3,44.2c0,0.6-0.2,1-0.5,1.3c-0.3,0.3-0.7,0.4-1.2,0.4
	s-0.9-0.1-1.3-0.4c-0.4-0.3-0.6-0.7-0.5-1.3l0.3-35.6l-11.8,36.2c-0.1,0.4-0.3,0.7-0.6,0.9c-0.3,0.2-0.7,0.3-1.1,0.3
	c-0.5,0-1-0.1-1.5-0.2c-0.5-0.1-0.9-0.5-1-1.1l-11.1-33.9l-0.2,33.4c0,0.6-0.2,1-0.5,1.3c-0.4,0.3-0.8,0.4-1.2,0.4
	c-0.5,0-0.9-0.1-1.2-0.4c-0.3-0.3-0.5-0.7-0.5-1.3l0.3-44.2c0-0.5,0.2-0.9,0.5-1.3C595.5,92.5,595.9,92.3,596.4,92.3z"/>
<path fill="#FFFFFF" d="M632.4,123.5V92.5h3.5v31.1c0,1.8,0.3,3.5,1,5.1c0.7,1.6,1.6,3,2.8,4.1c1.2,1.2,2.6,2.1,4.1,2.8
	c1.6,0.7,3.3,1,5.1,1h3.1c1.8,0,3.5-0.3,5.1-1c1.6-0.7,2.9-1.6,4.1-2.8c1.2-1.2,2.1-2.5,2.8-4.1c0.7-1.6,1-3.3,1-5.1V92.5h3.5v31.1
	c0,2.3-0.4,4.4-1.3,6.4c-0.9,2-2,3.8-3.5,5.3c-1.5,1.5-3.2,2.7-5.2,3.5c-2,0.9-4.1,1.3-6.4,1.3h-3.1c-2.3,0-4.4-0.4-6.4-1.3
	c-2-0.9-3.7-2-5.2-3.5c-1.5-1.5-2.7-3.3-3.5-5.3C632.8,127.9,632.4,125.8,632.4,123.5z"/>
<path fill="#FFFFFF" d="M674.1,92.3c0.5,0,0.8,0.1,1.2,0.4c0.3,0.3,0.5,0.6,0.6,1.1l24.7,39.4l0.2-39.1c0-0.5,0.2-0.9,0.5-1.3
	c0.3-0.3,0.8-0.5,1.3-0.5c0.5,0,0.9,0.2,1.3,0.5c0.3,0.3,0.5,0.8,0.5,1.3l-0.3,44.2c0,0.4-0.1,0.7-0.3,1c-0.2,0.3-0.6,0.5-0.9,0.7
	c-0.3,0.1-0.6,0.2-0.9,0.2c-0.6,0-1.1-0.3-1.5-0.8l-24.5-39.1l-0.3,38c0,0.6-0.2,1-0.5,1.3c-0.4,0.3-0.8,0.4-1.2,0.4
	c-0.5,0-0.9-0.1-1.2-0.4c-0.4-0.3-0.5-0.7-0.5-1.3l0.3-44.2c0-0.5,0.2-0.9,0.5-1.3C673.2,92.5,673.6,92.3,674.1,92.3z"/>
<path fill="#FFFFFF" d="M710.4,92.3c0.5,0,0.9,0.2,1.3,0.5c0.3,0.3,0.5,0.8,0.5,1.3l-0.3,44.2c0,0.6-0.2,1-0.5,1.3
	c-0.4,0.3-0.8,0.4-1.2,0.4c-0.5,0-0.9-0.1-1.2-0.4c-0.3-0.3-0.5-0.7-0.5-1.3l0.3-44.2c0-0.5,0.2-0.9,0.5-1.3
	C709.5,92.5,709.9,92.3,710.4,92.3z"/>
<path fill="#FFFFFF" d="M716.6,92.3h34.2c0.6,0,1,0.2,1.3,0.5c0.3,0.4,0.4,0.8,0.4,1.2c0,0.4-0.1,0.8-0.4,1.2
	c-0.3,0.4-0.7,0.5-1.3,0.5h-15.3l0.2,42.5c0,0.6-0.1,1-0.5,1.3c-0.4,0.3-0.8,0.4-1.2,0.4c-0.5,0-0.9-0.1-1.2-0.4
	c-0.4-0.3-0.5-0.7-0.5-1.3L732,95.8h-15.4c-0.6,0-1-0.2-1.3-0.5c-0.3-0.3-0.4-0.7-0.4-1.2c0-0.5,0.1-0.9,0.4-1.2
	C715.6,92.5,716,92.3,716.6,92.3z"/>
<path fill="#FFFFFF" d="M791.3,92.3c0.6,0,1.1,0.4,1.5,0.9c0.3,0.6,0.3,1.1,0,1.7l-17.2,28.9v14.5c0,0.6-0.2,1-0.5,1.3
	c-0.3,0.3-0.7,0.4-1.2,0.4c-0.5,0-0.9-0.1-1.2-0.4c-0.4-0.3-0.5-0.7-0.5-1.4v-14.8l-17-28.5c-0.4-0.6-0.4-1.2,0-1.8
	c0.3-0.6,0.9-0.9,1.6-0.9c0.7,0.1,1.2,0.4,1.4,0.9l15.8,26.6l15.9-26.6C790.1,92.6,790.7,92.3,791.3,92.3z"/>
</svg>
